<svg width="9" height="9" viewBox="0 0 9 9" fill="none" xmlns="http://www.w3.org/2000/svg">
<path d="M4.5 0C3.60999 0 2.73996 0.26392 1.99994 0.758387C1.25991 1.25285 0.683138 1.95566 0.342544 2.77792C0.00194979 3.60019 -0.0871652 4.50499 0.0864682 5.3779C0.260102 6.25082 0.688685 7.05264 1.31802 7.68198C1.94736 8.31131 2.74918 8.7399 3.6221 8.91353C4.49501 9.08716 5.39981 8.99805 6.22208 8.65746C7.04434 8.31686 7.74715 7.74008 8.24161 7.00006C8.73608 6.26004 9 5.39001 9 4.5C9 3.90905 8.8836 3.32389 8.65746 2.77792C8.43131 2.23196 8.09984 1.73588 7.68198 1.31802C7.26412 0.900156 6.76804 0.568688 6.22208 0.342542C5.67611 0.116396 5.09095 0 4.5 0V0ZM5.7195 5.0805C5.76168 5.12233 5.79516 5.1721 5.818 5.22694C5.84085 5.28178 5.85261 5.34059 5.85261 5.4C5.85261 5.4594 5.84085 5.51822 5.818 5.57306C5.79516 5.62789 5.76168 5.67766 5.7195 5.7195C5.67767 5.76168 5.6279 5.79515 5.57306 5.818C5.51822 5.84085 5.45941 5.85261 5.4 5.85261C5.3406 5.85261 5.28178 5.84085 5.22694 5.818C5.1721 5.79515 5.12233 5.76168 5.0805 5.7195L4.5 5.1345L3.9195 5.7195C3.87767 5.76168 3.8279 5.79515 3.77306 5.818C3.71822 5.84085 3.65941 5.85261 3.6 5.85261C3.5406 5.85261 3.48178 5.84085 3.42694 5.818C3.37211 5.79515 3.32233 5.76168 3.2805 5.7195C3.23832 5.67766 3.20485 5.62789 3.182 5.57306C3.15915 5.51822 3.14739 5.4594 3.14739 5.4C3.14739 5.34059 3.15915 5.28178 3.182 5.22694C3.20485 5.1721 3.23832 5.12233 3.2805 5.0805L3.8655 4.5L3.2805 3.9195C3.19576 3.83476 3.14816 3.71983 3.14816 3.6C3.14816 3.48016 3.19576 3.36524 3.2805 3.2805C3.36524 3.19576 3.48017 3.14816 3.6 3.14816C3.71984 3.14816 3.83476 3.19576 3.9195 3.2805L4.5 3.8655L5.0805 3.2805C5.16524 3.19576 5.28017 3.14816 5.4 3.14816C5.51984 3.14816 5.63476 3.19576 5.7195 3.2805C5.80424 3.36524 5.85184 3.48016 5.85184 3.6C5.85184 3.71983 5.80424 3.83476 5.7195 3.9195L5.1345 4.5L5.7195 5.0805Z" fill="white"/>
</svg>
