<svg width="55" height="55" viewBox="0 0 55 55" fill="none" xmlns="http://www.w3.org/2000/svg">
<path d="M27.5 53.2812C41.7386 53.2812 53.2812 41.7386 53.2812 27.5C53.2812 13.2614 41.7386 1.71875 27.5 1.71875C13.2614 1.71875 1.71875 13.2614 1.71875 27.5C1.71875 41.7386 13.2614 53.2812 27.5 53.2812Z" fill="#2867B2"/>
<path d="M17.3594 39.7891L11.7734 47.8672C12.4609 48.3828 13.2344 48.8984 13.9219 49.4141L20.1953 39.875C20.1953 39.7891 17.3594 39.7891 17.3594 39.7891Z" fill="#94989B"/>
<path d="M17.3594 39.7891H14.5234L9.71094 46.0625C10.3984 46.6641 11 47.2656 11.7734 47.7812L17.3594 39.7891Z" fill="#E6E6E6"/>
<path d="M37.6406 39.7891H34.8047L41.0781 49.3281C41.8516 48.8984 42.5391 48.3828 43.2266 47.7812L37.6406 39.7891Z" fill="#94989B"/>
<path d="M37.6406 39.7891L43.2266 47.8672C43.9141 47.3516 44.6016 46.75 45.2891 46.1484L40.4766 39.875H37.6406V39.7891Z" fill="#E6E6E6"/>
<path d="M42.3672 37.9844C42.3672 39.5312 41.1641 40.7344 39.6172 40.7344H15.3828C13.8359 40.7344 12.6328 39.5312 12.6328 37.9844V17.7891C12.6328 6.96094 42.2813 6.96094 42.2813 17.7891L42.3672 37.9844Z" fill="white"/>
<path d="M40.5625 34.8047C40.5625 35.75 39.7891 36.4375 38.8438 36.4375H34.8047C33.8594 36.4375 33.0859 35.6641 33.0859 34.8047C33.0859 33.8594 33.8594 33.1719 34.8047 33.1719H38.8438C39.875 33.1719 40.5625 33.9453 40.5625 34.8047Z" fill="#3E4347"/>
<path d="M14.4375 34.8047C14.4375 33.8594 15.2109 33.1719 16.1563 33.1719H20.1953C21.1406 33.1719 21.9141 33.9453 21.9141 34.8047C21.9141 35.75 21.1406 36.4375 20.1953 36.4375H16.1563C15.125 36.5234 14.4375 35.75 14.4375 34.8047Z" fill="#3E4347"/>
<path d="M40.5625 26.125C40.5625 27.4141 39.5312 28.4453 38.2422 28.4453H16.7578C15.4688 28.4453 14.4375 27.4141 14.4375 26.125V18.7344C14.4375 17.4453 15.4688 16.4141 16.7578 16.4141H38.3281C39.6172 16.4141 40.6484 17.4453 40.6484 18.7344V26.125H40.5625Z" fill="#3E4347"/>
<path d="M18.1328 36.2656C18.9397 36.2656 19.5938 35.6115 19.5938 34.8047C19.5938 33.9978 18.9397 33.3438 18.1328 33.3438C17.326 33.3438 16.6719 33.9978 16.6719 34.8047C16.6719 35.6115 17.326 36.2656 18.1328 36.2656Z" fill="white"/>
<path d="M36.8672 36.2656C37.674 36.2656 38.3281 35.6115 38.3281 34.8047C38.3281 33.9978 37.674 33.3438 36.8672 33.3438C36.0603 33.3438 35.4062 33.9978 35.4062 34.8047C35.4062 35.6115 36.0603 36.2656 36.8672 36.2656Z" fill="white"/>
</svg>
