<svg width="26" height="24" viewBox="0 0 26 24" fill="none" xmlns="http://www.w3.org/2000/svg">
<path d="M25.1597 8.45108L17.3654 7.35612L13.8811 0.528203C13.7859 0.341259 13.6294 0.189923 13.436 0.0979342C12.9509 -0.133521 12.3615 0.0593584 12.119 0.528203L8.63477 7.35612L0.840471 8.45108C0.625583 8.48076 0.429114 8.57868 0.278692 8.72705C0.0968411 8.90772 -0.00336732 9.15079 8.64032e-05 9.40284C0.00354013 9.6549 0.110373 9.89531 0.297111 10.0713L5.93639 15.3858L4.60408 22.8903C4.57284 23.0649 4.59282 23.2444 4.66177 23.4086C4.73072 23.5727 4.84586 23.7149 4.99416 23.819C5.14245 23.9231 5.31796 23.985 5.50078 23.9976C5.68359 24.0102 5.86641 23.973 6.02848 23.8903L13.0001 20.3473L19.9716 23.8903C20.162 23.9882 20.383 24.0209 20.5948 23.9853C21.129 23.8962 21.4881 23.4066 21.396 22.8903L20.0637 15.3858L25.703 10.0713C25.8565 9.92587 25.9578 9.73595 25.9885 9.52824C26.0714 9.00895 25.6969 8.52823 25.1597 8.45108Z" fill="#BBBBBB"/>
</svg>
